<svg width="30" height="30" viewBox="0 0 30 30" fill="none" xmlns="http://www.w3.org/2000/svg">
<path d="M15 29.5C23.0081 29.5 29.5 23.0081 29.5 15C29.5 6.99187 23.0081 0.5 15 0.5C6.99187 0.5 0.5 6.99187 0.5 15C0.5 23.0081 6.99187 29.5 15 29.5Z" fill="#E8199B"/>
<path d="M16.22 20.5H13.78C12.25 20.5 11 19.25 11 17.72V17.5C11 17.22 11.22 17 11.5 17C11.78 17 12 17.22 12 17.5V17.72C12 18.7 12.8 19.5 13.78 19.5H16.22C17.2 19.5 18 18.7 18 17.72C18 16.93 17.47 16.23 16.71 16.01L13.02 14.96C11.83 14.61 11 13.51 11 12.28C11 10.75 12.25 9.5 13.78 9.5H16.22C17.75 9.5 19 10.75 19 12.28V12.5C19 12.78 18.78 13 18.5 13C18.22 13 18 12.78 18 12.5V12.28C18 11.3 17.2 10.5 16.22 10.5H13.78C12.8 10.5 12 11.3 12 12.28C12 13.07 12.53 13.77 13.29 13.99L16.98 15.04C18.17 15.38 19 16.48 19 17.71C19 19.25 17.75 20.5 16.22 20.5Z" fill="#DFE3EE"/>
<path d="M15 22.5C14.72 22.5 14.5 22.28 14.5 22V20C14.5 19.72 14.72 19.5 15 19.5C15.28 19.5 15.5 19.72 15.5 20V22C15.5 22.28 15.28 22.5 15 22.5Z" fill="#DFE3EE"/>
<path d="M15 10.5C14.72 10.5 14.5 10.28 14.5 10V8C14.5 7.72 14.72 7.5 15 7.5C15.28 7.5 15.5 7.72 15.5 8V10C15.5 10.28 15.28 10.5 15 10.5Z" fill="#DFE3EE"/>
<path d="M11.5 25.3899C11.44 25.3899 11.39 25.3799 11.33 25.3599C6.95 23.8099 4 19.6399 4 14.9999C4 10.3599 6.95 6.18995 11.33 4.63995C11.59 4.54995 11.87 4.67995 11.97 4.93995C12.06 5.19995 11.93 5.48995 11.67 5.57995C7.68 6.98995 5 10.7799 5 14.9999C5 19.2199 7.68 23.0099 11.67 24.4199C11.93 24.5099 12.07 24.7999 11.97 25.0599C11.9 25.2599 11.71 25.3899 11.5 25.3899Z" fill="#DFE3EE"/>
<path d="M18.5 25.39C18.29 25.39 18.1 25.26 18.03 25.06C17.94 24.8 18.07 24.51 18.33 24.42C22.32 23.01 25 19.22 25 15C25 10.78 22.32 6.98997 18.33 5.57997C18.07 5.48997 17.93 5.19997 18.03 4.93997C18.12 4.67997 18.41 4.53997 18.67 4.63997C23.05 6.18997 26 10.36 26 15C26 19.64 23.05 23.81 18.67 25.36C18.61 25.38 18.56 25.39 18.5 25.39Z" fill="#DFE3EE"/>
</svg>
