<svg width="22" height="20" viewBox="0 0 22 20" fill="none" xmlns="http://www.w3.org/2000/svg">
<path d="M18.824 6.60769L18.5778 6.53846C18.4613 6.51661 18.3495 6.47498 18.247 6.41538C18.5988 5.99007 18.8623 5.49892 19.0221 4.97061C19.182 4.44231 19.2349 3.88745 19.1778 3.33846V2.9C19.1778 2.13087 18.8723 1.39325 18.3284 0.84939C17.7846 0.305535 17.0469 0 16.2778 0C15.5087 0 14.7711 0.305535 14.2272 0.84939C13.6833 1.39325 13.3778 2.13087 13.3778 2.9V3.3C13.3155 3.85519 13.3658 4.41725 13.5257 4.95255C13.6856 5.48784 13.9519 5.98538 14.3086 6.41538L14.224 6.46154C13.8723 5.89716 13.3827 5.43164 12.8013 5.10888C12.2199 4.78612 11.5659 4.61676 10.9009 4.61676C10.2359 4.61676 9.58189 4.78612 9.00049 5.10888C8.41909 5.43164 7.92948 5.89716 7.57781 6.46154L7.4932 6.41538C7.84498 5.99007 8.10848 5.49892 8.26829 4.97061C8.4281 4.44231 8.48103 3.88745 8.42396 3.33846V2.9C8.41193 2.13064 8.09938 1.39651 7.55314 0.854581C7.0069 0.312653 6.27032 0.00593302 5.50089 0C4.73547 0.0118998 4.00474 0.321255 3.46344 0.862553C2.92214 1.40385 2.61279 2.13458 2.60089 2.9V3.3C2.53855 3.85519 2.58886 4.41725 2.74879 4.95255C2.90871 5.48784 3.17498 5.98538 3.53166 6.41538C3.42687 6.47581 3.31232 6.51746 3.1932 6.53846L2.94704 6.60769C1.53935 7.07692 0.116272 8.39231 0.116272 10C0.116272 10.204 0.197316 10.3997 0.341574 10.5439C0.485833 10.6882 0.68149 10.7692 0.885503 10.7692C1.08952 10.7692 1.28517 10.6882 1.42943 10.5439C1.57369 10.3997 1.65473 10.204 1.65473 10C1.65473 9.16154 2.56243 8.36154 3.43935 8.06923C3.49144 8.04827 3.54558 8.0328 3.60089 8.02308C4.0648 7.92417 4.482 7.67222 4.7855 7.30769C5.24828 7.47197 5.7535 7.47197 6.21627 7.30769C6.41304 7.56879 6.67975 7.76882 6.9855 7.88462C6.94342 8.11309 6.92027 8.34464 6.91627 8.57692C6.91627 8.78462 6.91627 8.98462 6.91627 9.18462C6.91627 10.6308 6.87781 12.1308 8.36243 13.8C8.2932 14.2231 8.05473 14.2923 7.52396 14.4385L7.17781 14.5385C5.20089 15.1692 3.1932 17 3.1932 19.2308C3.1932 19.4348 3.27424 19.6304 3.4185 19.7747C3.56276 19.919 3.75841 20 3.96243 20C4.16644 20 4.3621 19.919 4.50635 19.7747C4.65061 19.6304 4.73166 19.4348 4.73166 19.2308C4.73166 17.8 6.22396 16.4462 7.67012 15.9692C7.75555 15.938 7.84291 15.9123 7.93166 15.8923C8.27931 15.8277 8.60984 15.6919 8.90241 15.4933C9.19499 15.2947 9.44328 15.0377 9.63166 14.7385C10.0284 14.906 10.4548 14.9923 10.8855 14.9923C11.3162 14.9923 11.7426 14.906 12.1393 14.7385C12.3277 15.0377 12.576 15.2947 12.8686 15.4933C13.1612 15.6919 13.4917 15.8277 13.8393 15.8923C13.9281 15.9123 14.0155 15.938 14.1009 15.9692C15.547 16.4462 17.0393 17.8 17.0393 19.2308C17.0393 19.4348 17.1204 19.6304 17.2647 19.7747C17.4089 19.919 17.6046 20 17.8086 20C18.0126 20 18.2083 19.919 18.3525 19.7747C18.4968 19.6304 18.5778 19.4348 18.5778 19.2308C18.5778 17 16.5701 15.1692 14.5932 14.5077L14.247 14.4077C13.7163 14.2615 13.4778 14.1923 13.4086 13.7692C14.8932 12.1308 14.8855 10.6308 14.8547 9.15385C14.8547 8.95385 14.8547 8.75385 14.8547 8.54615C14.8507 8.31387 14.8276 8.08232 14.7855 7.85385C15.0913 7.73805 15.358 7.53803 15.5547 7.27692C16.0175 7.4412 16.5227 7.4412 16.9855 7.27692C17.289 7.64145 17.7062 7.8934 18.1701 7.99231C18.2254 8.00204 18.2796 8.0175 18.3317 8.03846C19.2086 8.36154 20.1163 9.16154 20.1163 10C20.1163 10.204 20.1973 10.3997 20.3416 10.5439C20.4858 10.6882 20.6815 10.7692 20.8855 10.7692C21.0895 10.7692 21.2852 10.6882 21.4294 10.5439C21.5737 10.3997 21.6547 10.204 21.6547 10C21.6547 8.39231 20.2317 7.07692 18.824 6.60769ZM4.8932 5.63846C4.58488 5.34688 4.35334 4.98367 4.21915 4.58109C4.08496 4.17851 4.05226 3.74902 4.12396 3.33077C4.12396 3.18462 4.12396 3.04615 4.12396 2.9C4.13383 2.53936 4.28253 2.19645 4.53907 1.94278C4.7956 1.68912 5.14016 1.54427 5.50089 1.53846C5.85893 1.54817 6.19963 1.69473 6.45289 1.948C6.70615 2.20126 6.85272 2.54196 6.86243 2.9C6.86243 3.04615 6.86243 3.18462 6.86243 3.33077C6.93413 3.74902 6.90143 4.17851 6.76724 4.58109C6.63305 4.98367 6.40151 5.34688 6.0932 5.63846C5.92979 5.78929 5.71557 5.87304 5.4932 5.87304C5.27082 5.87304 5.0566 5.78929 4.8932 5.63846ZM9.70089 12.9615C8.40858 11.6692 8.42396 10.6538 8.45473 9.21538C8.45473 9.00769 8.45473 8.79231 8.45473 8.57692C8.45473 7.93428 8.71002 7.31796 9.16444 6.86355C9.61885 6.40913 10.2352 6.15385 10.8778 6.15385C11.5205 6.15385 12.1368 6.40913 12.5912 6.86355C13.0456 7.31796 13.3009 7.93428 13.3009 8.57692C13.3009 8.79231 13.3009 9.00769 13.3009 9.21538C13.3009 10.6385 13.347 11.6692 12.0547 12.9615C11.7355 13.26 11.3148 13.4261 10.8778 13.4261C10.4408 13.4261 10.0201 13.26 9.70089 12.9615ZM15.6624 5.63846C15.3541 5.34688 15.1226 4.98367 14.9884 4.58109C14.8542 4.17851 14.8215 3.74902 14.8932 3.33077C14.8932 3.18462 14.8932 3.04615 14.8932 2.9C14.8932 2.5389 15.0366 2.19258 15.292 1.93725C15.5473 1.68191 15.8936 1.53846 16.2547 1.53846C16.6158 1.53846 16.9621 1.68191 17.2175 1.93725C17.4728 2.19258 17.6163 2.5389 17.6163 2.9C17.6163 3.04615 17.6163 3.18462 17.6163 3.33077C17.688 3.74902 17.6553 4.17851 17.5211 4.58109C17.3869 4.98367 17.1554 5.34688 16.847 5.63846C16.6845 5.78495 16.4735 5.86603 16.2547 5.86603C16.0359 5.86603 15.8249 5.78495 15.6624 5.63846Z" fill="black"/>
</svg>
