<svg width="19" height="20" viewBox="0 0 19 20" fill="none" xmlns="http://www.w3.org/2000/svg">
<path d="M9.35474 3.26875H17.3547C17.9547 3.26875 18.3547 2.86875 18.3547 2.26875C18.3547 1.66875 17.9547 1.26875 17.3547 1.26875H9.35474C8.75474 1.26875 8.35474 1.66875 8.35474 2.26875C8.35474 2.86875 8.75474 3.26875 9.35474 3.26875Z" fill="black"/>
<path d="M17.3547 8.26875H9.35474C8.75474 8.26875 8.35474 8.66875 8.35474 9.26875C8.35474 9.86875 8.75474 10.2688 9.35474 10.2688H17.3547C17.9547 10.2688 18.3547 9.86875 18.3547 9.26875C18.3547 8.66875 17.9547 8.26875 17.3547 8.26875Z" fill="black"/>
<path d="M17.3547 15.2688H9.35474C8.75474 15.2688 8.35474 15.6688 8.35474 16.2688C8.35474 16.8688 8.75474 17.2688 9.35474 17.2688H17.3547C17.9547 17.2688 18.3547 16.8688 18.3547 16.2688C18.3547 15.6688 17.9547 15.2688 17.3547 15.2688Z" fill="black"/>
<path d="M4.55479 0.46875L2.85479 2.96875L2.35479 2.46875C1.95479 2.06875 1.35479 2.06875 0.954785 2.46875C0.554785 2.86875 0.554785 3.46875 0.954785 3.86875L2.25479 5.26875C2.45479 5.46875 2.65479 5.56875 2.95479 5.56875H3.05479C3.35478 5.56875 3.65479 5.36875 3.75479 5.16875L6.15479 1.56875C6.45479 1.06875 6.35479 0.46875 5.95479 0.16875C5.45479 -0.13125 4.85478 -0.03125 4.55479 0.46875Z" fill="black"/>
<path d="M4.55479 7.46875L2.85479 9.96875L2.35479 9.46875C1.95479 9.06875 1.35479 9.06875 0.954785 9.46875C0.554785 9.86875 0.554785 10.4688 0.954785 10.8688L2.25479 12.2688C2.45479 12.4688 2.65479 12.5688 2.95479 12.5688H3.05479C3.35478 12.5688 3.65479 12.3687 3.75479 12.1687L6.15479 8.56875C6.45479 8.06875 6.35479 7.46875 5.85479 7.16875C5.45479 6.86875 4.85478 6.96875 4.55479 7.46875Z" fill="black"/>
<path d="M4.55479 14.4688L2.85479 16.9688L2.35479 16.4688C1.95479 16.0688 1.35479 16.0688 0.954785 16.4688C0.554785 16.8688 0.554785 17.4688 0.954785 17.8688L2.25479 19.2688C2.45479 19.4688 2.65479 19.5687 2.95479 19.5687H3.05479C3.35478 19.5687 3.65479 19.3687 3.75479 19.1687L6.15479 15.5687C6.45479 15.0687 6.35479 14.4687 5.85479 14.1687C5.45479 13.8687 4.85478 13.9688 4.55479 14.4688Z" fill="black"/>
</svg>
