<svg width="17" height="20" viewBox="0 0 17 20" fill="none" xmlns="http://www.w3.org/2000/svg">
<path d="M8.50278 6.51733C9.81536 6.51733 10.8875 7.58918 10.8875 8.90199V10.009C10.8875 10.285 10.6634 10.509 10.3874 10.509H6.6182C6.34213 10.509 6.11812 10.285 6.11812 10.009V8.90199C6.11812 7.58942 7.19021 6.51733 8.50278 6.51733ZM4.09405 12.7307C3.43631 12.7307 3.43631 11.7306 4.09405 11.7306H12.9115C13.5693 11.7306 13.5693 12.7307 12.9115 12.7307H4.09405ZM4.09405 17.0344C3.43631 17.0344 3.43631 16.0344 4.09405 16.0344H12.9115C13.5693 16.0344 13.5693 17.0344 12.9115 17.0344H4.09405ZM4.09405 14.8827C3.43631 14.8827 3.43631 13.8825 4.09405 13.8825H12.9115C13.5693 13.8825 13.5693 14.8827 12.9115 14.8827H4.09405ZM1.15481 0H12.4393C12.5773 0 12.7023 0.0559417 12.7929 0.146514L16.2043 3.55799C16.3019 3.65558 16.3508 3.78369 16.3508 3.91156V19.4999C16.3508 19.776 16.1268 20 15.8508 20H1.15481C0.878733 20 0.654724 19.776 0.654724 19.4999V0.500085C0.654724 0.224009 0.878733 0 1.15481 0ZM12.2322 0.999927H1.65465V19.0001H15.3509V4.11862L12.2322 0.999927ZM8.50278 2.38806C9.61629 2.38806 10.5189 3.29087 10.5189 4.40438C10.5189 5.51764 9.61629 6.42046 8.50278 6.42046C7.38928 6.42046 6.4867 5.51764 6.4867 4.40438C6.4867 3.29087 7.38928 2.38806 8.50278 2.38806ZM8.50278 3.38823C7.94143 3.38823 7.48663 3.84302 7.48663 4.40438C7.48663 4.96549 7.94143 5.42053 8.50278 5.42053C9.06414 5.42053 9.51894 4.96549 9.51894 4.40438C9.51894 3.84302 9.06414 3.38823 8.50278 3.38823ZM8.50278 7.51726C7.74237 7.51726 7.11805 8.14133 7.11805 8.90199V9.50912H9.88752V8.90199C9.88752 8.14133 9.2632 7.51726 8.50278 7.51726Z" fill="black"/>
</svg>
